<svg xmlns="http://www.w3.org/2000/svg" xmlns:xlink="http://www.w3.org/1999/xlink" width="500" zoomAndPan="magnify" viewBox="0 0 375 374.999991" height="500" preserveAspectRatio="xMidYMid meet" version="1.0"><defs><g/><clipPath id="efa91652ea"><path d="M 0 127.113281 L 78 127.113281 L 78 203.613281 L 0 203.613281 Z M 0 127.113281 " clip-rule="nonzero"/></clipPath></defs><g fill="#000000" fill-opacity="1"><g transform="translate(9.440047, 237.176194)"><g><path d="M 45.203125 2 C 37.097656 2 29.226562 1 21.59375 -1 C 13.96875 -3 7.769531 -5.671875 3 -9.015625 L 12.296875 -29.890625 C 16.773438 -26.929688 21.972656 -24.546875 27.890625 -22.734375 C 33.804688 -20.929688 39.625 -20.03125 45.34375 -20.03125 C 56.207031 -20.03125 61.640625 -22.742188 61.640625 -28.171875 C 61.640625 -31.035156 60.085938 -33.15625 56.984375 -34.53125 C 53.890625 -35.914062 48.910156 -37.375 42.046875 -38.90625 C 34.515625 -40.53125 28.222656 -42.269531 23.171875 -44.125 C 18.117188 -45.988281 13.78125 -48.96875 10.15625 -53.0625 C 6.53125 -57.164062 4.71875 -62.695312 4.71875 -69.65625 C 4.71875 -75.757812 6.382812 -81.265625 9.71875 -86.171875 C 13.0625 -91.085938 18.046875 -94.972656 24.671875 -97.828125 C 31.296875 -100.691406 39.425781 -102.125 49.0625 -102.125 C 55.632812 -102.125 62.113281 -101.382812 68.5 -99.90625 C 74.894531 -98.425781 80.523438 -96.257812 85.390625 -93.40625 L 76.671875 -72.375 C 67.128906 -77.519531 57.878906 -80.09375 48.921875 -80.09375 C 43.296875 -80.09375 39.191406 -79.257812 36.609375 -77.59375 C 34.035156 -75.925781 32.75 -73.757812 32.75 -71.09375 C 32.75 -68.414062 34.273438 -66.410156 37.328125 -65.078125 C 40.378906 -63.742188 45.289062 -62.363281 52.0625 -60.9375 C 59.6875 -59.3125 66.003906 -57.566406 71.015625 -55.703125 C 76.023438 -53.847656 80.363281 -50.894531 84.03125 -46.84375 C 87.695312 -42.789062 89.53125 -37.285156 89.53125 -30.328125 C 89.53125 -24.316406 87.863281 -18.878906 84.53125 -14.015625 C 81.195312 -9.148438 76.191406 -5.265625 69.515625 -2.359375 C 62.835938 0.546875 54.734375 2 45.203125 2 Z M 45.203125 2 "/></g></g></g><g fill="#000000" fill-opacity="1"><g transform="translate(87.379206, 237.176194)"><g><path d="M 41.765625 -78.8125 C 54.640625 -78.8125 64.460938 -75.878906 71.234375 -70.015625 C 78.003906 -64.148438 81.390625 -55.160156 81.390625 -43.046875 L 81.390625 0 L 56.0625 0 L 56.0625 -10.015625 C 52.15625 -2.484375 44.53125 1.28125 33.1875 1.28125 C 27.175781 1.28125 21.976562 0.234375 17.59375 -1.859375 C 13.207031 -3.953125 9.894531 -6.785156 7.65625 -10.359375 C 5.414062 -13.941406 4.296875 -18.019531 4.296875 -22.59375 C 4.296875 -29.9375 7.109375 -35.632812 12.734375 -39.6875 C 18.359375 -43.738281 27.035156 -45.765625 38.765625 -45.765625 L 54.203125 -45.765625 C 53.734375 -53.972656 48.253906 -58.078125 37.765625 -58.078125 C 34.046875 -58.078125 30.273438 -57.476562 26.453125 -56.28125 C 22.640625 -55.09375 19.398438 -53.445312 16.734375 -51.34375 L 7.578125 -69.796875 C 11.867188 -72.660156 17.085938 -74.878906 23.234375 -76.453125 C 29.390625 -78.023438 35.566406 -78.8125 41.765625 -78.8125 Z M 40.765625 -15.875 C 43.910156 -15.875 46.675781 -16.632812 49.0625 -18.15625 C 51.445312 -19.6875 53.160156 -21.929688 54.203125 -24.890625 L 54.203125 -31.609375 L 42.484375 -31.609375 C 34.566406 -31.609375 30.609375 -28.988281 30.609375 -23.75 C 30.609375 -21.363281 31.515625 -19.453125 33.328125 -18.015625 C 35.140625 -16.585938 37.617188 -15.875 40.765625 -15.875 Z M 40.765625 -15.875 "/></g></g></g><g fill="#000000" fill-opacity="1"><g transform="translate(162.601103, 237.176194)"><g><path d="M 62.21875 -3.140625 C 59.925781 -1.710938 57.132812 -0.617188 53.84375 0.140625 C 50.5625 0.898438 47.0625 1.28125 43.34375 1.28125 C 33.226562 1.28125 25.453125 -1.195312 20.015625 -6.15625 C 14.585938 -11.113281 11.875 -18.5 11.875 -28.3125 L 11.875 -54.359375 L 0.578125 -54.359375 L 0.578125 -74.65625 L 11.875 -74.65625 L 11.875 -94.828125 L 39.046875 -94.828125 L 39.046875 -74.65625 L 56.78125 -74.65625 L 56.78125 -54.359375 L 39.046875 -54.359375 L 39.046875 -28.609375 C 39.046875 -25.835938 39.785156 -23.664062 41.265625 -22.09375 C 42.742188 -20.519531 44.722656 -19.734375 47.203125 -19.734375 C 50.347656 -19.734375 53.113281 -20.546875 55.5 -22.171875 Z M 62.21875 -3.140625 "/></g></g></g><g fill="#000000" fill-opacity="1"><g transform="translate(211.937636, 237.176194)"><g><path d="M 90.390625 -77.515625 L 56.921875 3.140625 C 53.015625 12.679688 48.25 19.378906 42.625 23.234375 C 37 27.097656 30.132812 29.03125 22.03125 29.03125 C 17.925781 29.03125 13.800781 28.382812 9.65625 27.09375 C 5.507812 25.8125 2.148438 24.125 -0.421875 22.03125 L 9.015625 3 C 10.535156 4.4375 12.367188 5.554688 14.515625 6.359375 C 16.660156 7.171875 18.832031 7.578125 21.03125 7.578125 C 23.601562 7.578125 25.722656 7.050781 27.390625 6 C 29.054688 4.957031 30.460938 3.289062 31.609375 1 L -1.578125 -77.515625 L 26.3125 -77.515625 L 45.34375 -30.171875 L 64.5 -77.515625 Z M 90.390625 -77.515625 "/></g></g></g><g fill="#000000" fill-opacity="1"><g transform="translate(286.015442, 237.176194)"><g><path d="M 76.234375 -20.3125 L 76.234375 0 L 4.71875 0 L 4.71875 -16.015625 L 40.625 -57.359375 L 5.71875 -57.359375 L 5.71875 -77.515625 L 74.8125 -77.515625 L 74.8125 -61.640625 L 38.90625 -20.3125 Z M 76.234375 -20.3125 "/></g></g></g><g clip-path="url(#efa91652ea)"><path fill="#ffffff" d="M 83.378906 169.265625 L 71.082031 169.265625 C 50.035156 164.710938 45.351562 160.011719 40.796875 138.929688 L 40.796875 127.113281 L 39.242188 127.113281 L 39.242188 139.054688 C 34.695312 160.03125 29.992188 164.71875 8.984375 169.265625 L 0.0117188 169.265625 L 0.0117188 170.820312 L 8.984375 170.820312 C 29.992188 175.367188 34.695312 180.054688 39.242188 201.03125 L 39.242188 212.753906 L 40.796875 212.753906 L 40.796875 201.15625 C 45.351562 180.074219 50.035156 175.378906 71.082031 170.820312 L 83.378906 170.820312 Z M 83.378906 169.265625 " fill-opacity="1" fill-rule="nonzero"/></g></svg>