<svg xmlns="http://www.w3.org/2000/svg" xmlns:xlink="http://www.w3.org/1999/xlink" width="500" zoomAndPan="magnify" viewBox="0 0 375 374.999991" height="500" preserveAspectRatio="xMidYMid meet" version="1.0"><defs><g/><clipPath id="ce82d46a1a"><path d="M 0 123.691406 L 79.5 123.691406 L 79.5 201.691406 L 0 201.691406 Z M 0 123.691406 " clip-rule="nonzero"/></clipPath></defs><g fill="#ffffff" fill-opacity="1"><g transform="translate(12.761784, 238.531705)"><g><path d="M 45.15625 1.734375 C 37.164062 1.734375 29.441406 0.648438 21.984375 -1.515625 C 14.535156 -3.679688 8.550781 -6.492188 4.03125 -9.953125 L 11.96875 -27.546875 C 16.300781 -24.378906 21.445312 -21.832031 27.40625 -19.90625 C 33.363281 -17.976562 39.328125 -17.015625 45.296875 -17.015625 C 51.929688 -17.015625 56.832031 -18 60 -19.96875 C 63.175781 -21.945312 64.765625 -24.570312 64.765625 -27.84375 C 64.765625 -30.25 63.828125 -32.242188 61.953125 -33.828125 C 60.078125 -35.410156 57.671875 -36.679688 54.734375 -37.640625 C 51.804688 -38.609375 47.84375 -39.671875 42.84375 -40.828125 C 35.144531 -42.648438 28.84375 -44.472656 23.9375 -46.296875 C 19.039062 -48.128906 14.835938 -51.0625 11.328125 -55.09375 C 7.816406 -59.132812 6.0625 -64.523438 6.0625 -71.265625 C 6.0625 -77.128906 7.644531 -82.441406 10.8125 -87.203125 C 13.988281 -91.960938 18.773438 -95.734375 25.171875 -98.515625 C 31.566406 -101.304688 39.378906 -102.703125 48.609375 -102.703125 C 55.054688 -102.703125 61.351562 -101.929688 67.5 -100.390625 C 73.65625 -98.859375 79.046875 -96.648438 83.671875 -93.765625 L 76.453125 -76.015625 C 67.117188 -81.304688 57.789062 -83.953125 48.46875 -83.953125 C 41.925781 -83.953125 37.09375 -82.894531 33.96875 -80.78125 C 30.84375 -78.664062 29.28125 -75.875 29.28125 -72.40625 C 29.28125 -68.945312 31.082031 -66.375 34.6875 -64.6875 C 38.289062 -63.007812 43.796875 -61.351562 51.203125 -59.71875 C 58.898438 -57.894531 65.203125 -56.066406 70.109375 -54.234375 C 75.015625 -52.410156 79.222656 -49.523438 82.734375 -45.578125 C 86.242188 -41.640625 88 -36.304688 88 -29.578125 C 88 -23.804688 86.382812 -18.539062 83.15625 -13.78125 C 79.9375 -9.019531 75.101562 -5.242188 68.65625 -2.453125 C 62.21875 0.335938 54.382812 1.734375 45.15625 1.734375 Z M 45.15625 1.734375 "/></g></g></g><g fill="#ffffff" fill-opacity="1"><g transform="translate(90.069114, 238.531705)"><g><path d="M 41.6875 -78.765625 C 53.707031 -78.765625 62.9375 -75.898438 69.375 -70.171875 C 75.820312 -64.453125 79.046875 -55.820312 79.046875 -44.28125 L 79.046875 0 L 57.984375 0 L 57.984375 -9.671875 C 53.753906 -2.453125 45.867188 1.15625 34.328125 1.15625 C 28.367188 1.15625 23.203125 0.144531 18.828125 -1.875 C 14.453125 -3.894531 11.109375 -6.679688 8.796875 -10.234375 C 6.492188 -13.796875 5.34375 -17.835938 5.34375 -22.359375 C 5.34375 -29.566406 8.054688 -35.238281 13.484375 -39.375 C 18.921875 -43.507812 27.3125 -45.578125 38.65625 -45.578125 L 56.546875 -45.578125 C 56.546875 -50.484375 55.054688 -54.257812 52.078125 -56.90625 C 49.097656 -59.550781 44.625 -60.875 38.65625 -60.875 C 34.519531 -60.875 30.457031 -60.222656 26.46875 -58.921875 C 22.476562 -57.628906 19.085938 -55.875 16.296875 -53.65625 L 8.21875 -69.390625 C 12.445312 -72.367188 17.519531 -74.675781 23.4375 -76.3125 C 29.351562 -77.945312 35.4375 -78.765625 41.6875 -78.765625 Z M 39.953125 -14 C 43.804688 -14 47.222656 -14.882812 50.203125 -16.65625 C 53.179688 -18.4375 55.296875 -21.054688 56.546875 -24.515625 L 56.546875 -32.453125 L 41.109375 -32.453125 C 31.878906 -32.453125 27.265625 -29.425781 27.265625 -23.375 C 27.265625 -20.488281 28.394531 -18.203125 30.65625 -16.515625 C 32.914062 -14.835938 36.015625 -14 39.953125 -14 Z M 39.953125 -14 "/></g></g></g><g fill="#ffffff" fill-opacity="1"><g transform="translate(164.34755, 238.531705)"><g><path d="M 60.4375 -3.75 C 58.226562 -2.113281 55.507812 -0.882812 52.28125 -0.0625 C 49.0625 0.75 45.675781 1.15625 42.125 1.15625 C 32.882812 1.15625 25.738281 -1.195312 20.6875 -5.90625 C 15.644531 -10.625 13.125 -17.550781 13.125 -26.6875 L 13.125 -58.5625 L 1.15625 -58.5625 L 1.15625 -75.875 L 13.125 -75.875 L 13.125 -94.765625 L 35.625 -94.765625 L 35.625 -75.875 L 54.953125 -75.875 L 54.953125 -58.5625 L 35.625 -58.5625 L 35.625 -26.96875 C 35.625 -23.695312 36.460938 -21.171875 38.140625 -19.390625 C 39.828125 -17.617188 42.210938 -16.734375 45.296875 -16.734375 C 48.847656 -16.734375 51.875 -17.695312 54.375 -19.625 Z M 60.4375 -3.75 "/></g></g></g><g fill="#ffffff" fill-opacity="1"><g transform="translate(212.37562, 238.531705)"><g><path d="M 87.421875 -77.609375 L 52.359375 4.765625 C 48.804688 13.703125 44.40625 20 39.15625 23.65625 C 33.914062 27.3125 27.59375 29.140625 20.1875 29.140625 C 16.15625 29.140625 12.164062 28.515625 8.21875 27.265625 C 4.28125 26.015625 1.0625 24.28125 -1.4375 22.0625 L 6.78125 6.0625 C 8.507812 7.59375 10.503906 8.789062 12.765625 9.65625 C 15.023438 10.53125 17.257812 10.96875 19.46875 10.96875 C 22.550781 10.96875 25.050781 10.21875 26.96875 8.71875 C 28.894531 7.226562 30.628906 4.753906 32.171875 1.296875 L 32.453125 0.578125 L -1.15625 -77.609375 L 22.0625 -77.609375 L 43.859375 -24.953125 L 65.78125 -77.609375 Z M 87.421875 -77.609375 "/></g></g></g><g fill="#ffffff" fill-opacity="1"><g transform="translate(283.913639, 238.531705)"><g><path d="M 74.28125 -17.3125 L 74.28125 0 L 5.046875 0 L 5.046875 -13.5625 L 44.578125 -60.296875 L 6.0625 -60.296875 L 6.0625 -77.609375 L 72.984375 -77.609375 L 72.984375 -64.046875 L 33.46875 -17.3125 Z M 74.28125 -17.3125 "/></g></g></g><g clip-path="url(#ce82d46a1a)"><path fill="#000000" d="M 85.492188 166.882812 L 72.882812 166.882812 C 51.300781 162.214844 46.5 157.402344 41.828125 135.800781 L 41.828125 123.691406 L 40.234375 123.691406 L 40.234375 135.925781 C 35.570312 157.421875 30.75 162.222656 9.207031 166.882812 L 0.0078125 166.882812 L 0.0078125 168.476562 L 9.207031 168.476562 C 30.75 173.132812 35.570312 177.9375 40.234375 199.429688 L 40.234375 211.441406 L 41.828125 211.441406 L 41.828125 199.558594 C 46.5 177.957031 51.300781 173.144531 72.882812 168.476562 L 85.492188 168.476562 Z M 85.492188 166.882812 " fill-opacity="1" fill-rule="nonzero"/></g></svg>