<svg xmlns="http://www.w3.org/2000/svg" xmlns:xlink="http://www.w3.org/1999/xlink" width="500" zoomAndPan="magnify" viewBox="0 0 375 374.999991" height="500" preserveAspectRatio="xMidYMid meet" version="1.0"><defs><g/><clipPath id="bfc8aed665"><path d="M 78.644531 149.773438 L 126.644531 149.773438 L 126.644531 197.023438 L 78.644531 197.023438 Z M 78.644531 149.773438 " clip-rule="nonzero"/></clipPath></defs><g fill="#ffffff" fill-opacity="1"><g transform="translate(86.598923, 216.967814)"><g><path d="M 26.078125 1 C 21.460938 1 17.003906 0.375 12.703125 -0.875 C 8.398438 -2.125 4.941406 -3.75 2.328125 -5.75 L 6.90625 -15.90625 C 9.40625 -14.070312 12.375 -12.597656 15.8125 -11.484375 C 19.257812 -10.378906 22.707031 -9.828125 26.15625 -9.828125 C 29.988281 -9.828125 32.820312 -10.394531 34.65625 -11.53125 C 36.488281 -12.675781 37.40625 -14.191406 37.40625 -16.078125 C 37.40625 -17.460938 36.863281 -18.613281 35.78125 -19.53125 C 34.695312 -20.445312 33.304688 -21.179688 31.609375 -21.734375 C 29.921875 -22.296875 27.628906 -22.910156 24.734375 -23.578125 C 20.296875 -24.628906 16.660156 -25.679688 13.828125 -26.734375 C 10.992188 -27.796875 8.5625 -29.488281 6.53125 -31.8125 C 4.507812 -34.144531 3.5 -37.257812 3.5 -41.15625 C 3.5 -44.539062 4.414062 -47.601562 6.25 -50.34375 C 8.082031 -53.09375 10.84375 -55.273438 14.53125 -56.890625 C 18.226562 -58.503906 22.742188 -59.3125 28.078125 -59.3125 C 31.796875 -59.3125 35.429688 -58.863281 38.984375 -57.96875 C 42.535156 -57.082031 45.644531 -55.804688 48.3125 -54.140625 L 44.140625 -43.890625 C 38.753906 -46.953125 33.367188 -48.484375 27.984375 -48.484375 C 24.210938 -48.484375 21.421875 -47.867188 19.609375 -46.640625 C 17.804688 -45.421875 16.90625 -43.8125 16.90625 -41.8125 C 16.90625 -39.8125 17.945312 -38.328125 20.03125 -37.359375 C 22.113281 -36.390625 25.296875 -35.429688 29.578125 -34.484375 C 34.015625 -33.429688 37.648438 -32.375 40.484375 -31.3125 C 43.316406 -30.257812 45.742188 -28.59375 47.765625 -26.3125 C 49.796875 -24.039062 50.8125 -20.960938 50.8125 -17.078125 C 50.8125 -13.742188 49.878906 -10.703125 48.015625 -7.953125 C 46.160156 -5.203125 43.367188 -3.019531 39.640625 -1.40625 C 35.921875 0.195312 31.398438 1 26.078125 1 Z M 26.078125 1 "/></g></g></g><g fill="#ffffff" fill-opacity="1"><g transform="translate(131.239376, 216.967814)"><g><path d="M 24.078125 -45.484375 C 31.015625 -45.484375 36.34375 -43.828125 40.0625 -40.515625 C 43.78125 -37.210938 45.640625 -32.234375 45.640625 -25.578125 L 45.640625 0 L 33.484375 0 L 33.484375 -5.578125 C 31.035156 -1.410156 26.484375 0.671875 19.828125 0.671875 C 16.378906 0.671875 13.390625 0.0859375 10.859375 -1.078125 C 8.335938 -2.242188 6.410156 -3.851562 5.078125 -5.90625 C 3.742188 -7.96875 3.078125 -10.300781 3.078125 -12.90625 C 3.078125 -17.070312 4.644531 -20.347656 7.78125 -22.734375 C 10.925781 -25.128906 15.773438 -26.328125 22.328125 -26.328125 L 32.65625 -26.328125 C 32.65625 -29.148438 31.789062 -31.328125 30.0625 -32.859375 C 28.34375 -34.390625 25.765625 -35.15625 22.328125 -35.15625 C 19.929688 -35.15625 17.582031 -34.78125 15.28125 -34.03125 C 12.976562 -33.28125 11.019531 -32.265625 9.40625 -30.984375 L 4.75 -40.0625 C 7.1875 -41.78125 10.113281 -43.113281 13.53125 -44.0625 C 16.945312 -45.007812 20.460938 -45.484375 24.078125 -45.484375 Z M 23.078125 -8.078125 C 25.296875 -8.078125 27.265625 -8.585938 28.984375 -9.609375 C 30.703125 -10.640625 31.925781 -12.15625 32.65625 -14.15625 L 32.65625 -18.734375 L 23.734375 -18.734375 C 18.410156 -18.734375 15.75 -16.988281 15.75 -13.5 C 15.75 -11.832031 16.398438 -10.507812 17.703125 -9.53125 C 19.003906 -8.5625 20.796875 -8.078125 23.078125 -8.078125 Z M 23.078125 -8.078125 "/></g></g></g><g fill="#ffffff" fill-opacity="1"><g transform="translate(174.130819, 216.967814)"><g><path d="M 34.90625 -2.171875 C 33.625 -1.222656 32.050781 -0.507812 30.1875 -0.03125 C 28.332031 0.4375 26.378906 0.671875 24.328125 0.671875 C 18.992188 0.671875 14.867188 -0.6875 11.953125 -3.40625 C 9.035156 -6.132812 7.578125 -10.132812 7.578125 -15.40625 L 7.578125 -33.8125 L 0.671875 -33.8125 L 0.671875 -43.8125 L 7.578125 -43.8125 L 7.578125 -54.71875 L 20.578125 -54.71875 L 20.578125 -43.8125 L 31.734375 -43.8125 L 31.734375 -33.8125 L 20.578125 -33.8125 L 20.578125 -15.578125 C 20.578125 -13.691406 21.0625 -12.234375 22.03125 -11.203125 C 23 -10.171875 24.375 -9.65625 26.15625 -9.65625 C 28.207031 -9.65625 29.957031 -10.210938 31.40625 -11.328125 Z M 34.90625 -2.171875 "/></g></g></g><g fill="#ffffff" fill-opacity="1"><g transform="translate(201.864215, 216.967814)"><g><path d="M 50.484375 -44.8125 L 30.234375 2.75 C 28.179688 7.914062 25.640625 11.550781 22.609375 13.65625 C 19.585938 15.769531 15.9375 16.828125 11.65625 16.828125 C 9.320312 16.828125 7.015625 16.460938 4.734375 15.734375 C 2.460938 15.015625 0.609375 14.019531 -0.828125 12.75 L 3.921875 3.5 C 4.921875 4.382812 6.070312 5.078125 7.375 5.578125 C 8.675781 6.078125 9.96875 6.328125 11.25 6.328125 C 13.019531 6.328125 14.460938 5.894531 15.578125 5.03125 C 16.691406 4.175781 17.691406 2.75 18.578125 0.75 L 18.734375 0.328125 L -0.671875 -44.8125 L 12.75 -44.8125 L 25.328125 -14.40625 L 37.984375 -44.8125 Z M 50.484375 -44.8125 "/></g></g></g><g fill="#ffffff" fill-opacity="1"><g transform="translate(243.173228, 216.967814)"><g><path d="M 42.890625 -10 L 42.890625 0 L 2.921875 0 L 2.921875 -7.828125 L 25.734375 -34.8125 L 3.5 -34.8125 L 3.5 -44.8125 L 42.140625 -44.8125 L 42.140625 -36.984375 L 19.328125 -10 Z M 42.890625 -10 "/></g></g></g><g clip-path="url(#bfc8aed665)"><path fill="#000000" d="M 130.386719 175.613281 L 122.753906 175.613281 C 109.695312 172.820312 106.789062 169.941406 103.960938 157.015625 L 103.960938 149.773438 L 102.996094 149.773438 L 102.996094 157.09375 C 100.175781 169.953125 97.257812 172.824219 84.222656 175.613281 L 78.652344 175.613281 L 78.652344 176.566406 L 84.222656 176.566406 C 97.257812 179.351562 100.175781 182.226562 102.996094 195.085938 L 102.996094 202.269531 L 103.960938 202.269531 L 103.960938 195.164062 C 106.789062 182.238281 109.695312 179.359375 122.753906 176.566406 L 130.386719 176.566406 Z M 130.386719 175.613281 " fill-opacity="1" fill-rule="nonzero"/></g></svg>