<svg xmlns="http://www.w3.org/2000/svg" xmlns:xlink="http://www.w3.org/1999/xlink" width="500" zoomAndPan="magnify" viewBox="0 0 375 374.999991" height="500" preserveAspectRatio="xMidYMid meet" version="1.0"><defs><g/><clipPath id="3474f3add2"><path d="M 70.351562 147.929688 L 118.351562 147.929688 L 118.351562 195.179688 L 70.351562 195.179688 Z M 70.351562 147.929688 " clip-rule="nonzero"/></clipPath></defs><g fill="#000000" fill-opacity="1"><g transform="translate(76.974549, 218.33502)"><g><path d="M 28.0625 1.25 C 23.03125 1.25 18.144531 0.628906 13.40625 -0.609375 C 8.664062 -1.859375 4.816406 -3.519531 1.859375 -5.59375 L 7.640625 -18.5625 C 10.421875 -16.71875 13.644531 -15.234375 17.3125 -14.109375 C 20.976562 -12.984375 24.585938 -12.421875 28.140625 -12.421875 C 34.890625 -12.421875 38.265625 -14.109375 38.265625 -17.484375 C 38.265625 -19.265625 37.300781 -20.582031 35.375 -21.4375 C 33.457031 -22.300781 30.367188 -23.207031 26.109375 -24.15625 C 21.429688 -25.15625 17.519531 -26.234375 14.375 -27.390625 C 11.238281 -28.546875 8.546875 -30.394531 6.296875 -32.9375 C 4.054688 -35.476562 2.9375 -38.910156 2.9375 -43.234375 C 2.9375 -47.023438 3.96875 -50.441406 6.03125 -53.484375 C 8.101562 -56.535156 11.195312 -58.945312 15.3125 -60.71875 C 19.425781 -62.5 24.472656 -63.390625 30.453125 -63.390625 C 34.535156 -63.390625 38.554688 -62.929688 42.515625 -62.015625 C 46.484375 -61.097656 49.976562 -59.75 53 -57.96875 L 47.59375 -44.921875 C 41.664062 -48.117188 35.921875 -49.71875 30.359375 -49.71875 C 26.867188 -49.71875 24.320312 -49.195312 22.71875 -48.15625 C 21.125 -47.125 20.328125 -45.78125 20.328125 -44.125 C 20.328125 -42.46875 21.273438 -41.222656 23.171875 -40.390625 C 25.066406 -39.566406 28.113281 -38.710938 32.3125 -37.828125 C 37.050781 -36.816406 40.972656 -35.734375 44.078125 -34.578125 C 47.179688 -33.421875 49.875 -31.582031 52.15625 -29.0625 C 54.4375 -26.550781 55.578125 -23.140625 55.578125 -18.828125 C 55.578125 -15.097656 54.539062 -11.722656 52.46875 -8.703125 C 50.394531 -5.679688 47.285156 -3.265625 43.140625 -1.453125 C 39.003906 0.347656 33.976562 1.25 28.0625 1.25 Z M 28.0625 1.25 "/></g></g></g><g fill="#000000" fill-opacity="1"><g transform="translate(125.352981, 218.33502)"><g><path d="M 25.921875 -48.921875 C 33.910156 -48.921875 40.003906 -47.097656 44.203125 -43.453125 C 48.410156 -39.816406 50.515625 -34.238281 50.515625 -26.71875 L 50.515625 0 L 34.796875 0 L 34.796875 -6.21875 C 32.367188 -1.539062 27.632812 0.796875 20.59375 0.796875 C 16.863281 0.796875 13.640625 0.144531 10.921875 -1.15625 C 8.203125 -2.457031 6.144531 -4.21875 4.75 -6.4375 C 3.351562 -8.65625 2.65625 -11.1875 2.65625 -14.03125 C 2.65625 -18.582031 4.398438 -22.113281 7.890625 -24.625 C 11.390625 -27.144531 16.78125 -28.40625 24.0625 -28.40625 L 33.640625 -28.40625 C 33.347656 -33.5 29.945312 -36.046875 23.4375 -36.046875 C 21.125 -36.046875 18.785156 -35.675781 16.421875 -34.9375 C 14.054688 -34.195312 12.046875 -33.175781 10.390625 -31.875 L 4.703125 -43.328125 C 7.367188 -45.097656 10.609375 -46.472656 14.421875 -47.453125 C 18.242188 -48.429688 22.078125 -48.921875 25.921875 -48.921875 Z M 25.296875 -9.859375 C 27.253906 -9.859375 28.972656 -10.332031 30.453125 -11.28125 C 31.929688 -12.226562 32.992188 -13.617188 33.640625 -15.453125 L 33.640625 -19.625 L 26.375 -19.625 C 21.457031 -19.625 19 -17.992188 19 -14.734375 C 19 -13.253906 19.5625 -12.070312 20.6875 -11.1875 C 21.8125 -10.300781 23.347656 -9.859375 25.296875 -9.859375 Z M 25.296875 -9.859375 "/></g></g></g><g fill="#000000" fill-opacity="1"><g transform="translate(172.044752, 218.33502)"><g><path d="M 38.625 -1.953125 C 37.195312 -1.066406 35.460938 -0.390625 33.421875 0.078125 C 31.378906 0.554688 29.207031 0.796875 26.90625 0.796875 C 20.625 0.796875 15.796875 -0.738281 12.421875 -3.8125 C 9.054688 -6.894531 7.375 -11.484375 7.375 -17.578125 L 7.375 -33.734375 L 0.359375 -33.734375 L 0.359375 -46.34375 L 7.375 -46.34375 L 7.375 -58.859375 L 24.234375 -58.859375 L 24.234375 -46.34375 L 35.25 -46.34375 L 35.25 -33.734375 L 24.234375 -33.734375 L 24.234375 -17.75 C 24.234375 -16.039062 24.691406 -14.695312 25.609375 -13.71875 C 26.523438 -12.738281 27.753906 -12.25 29.296875 -12.25 C 31.253906 -12.25 32.972656 -12.753906 34.453125 -13.765625 Z M 38.625 -1.953125 "/></g></g></g><g fill="#000000" fill-opacity="1"><g transform="translate(202.668949, 218.33502)"><g><path d="M 56.109375 -48.125 L 35.328125 1.953125 C 32.898438 7.867188 29.941406 12.023438 26.453125 14.421875 C 22.960938 16.816406 18.703125 18.015625 13.671875 18.015625 C 11.128906 18.015625 8.566406 17.613281 5.984375 16.8125 C 3.410156 16.019531 1.328125 14.972656 -0.265625 13.671875 L 5.59375 1.859375 C 6.539062 2.753906 7.679688 3.453125 9.015625 3.953125 C 10.347656 4.453125 11.691406 4.703125 13.046875 4.703125 C 14.648438 4.703125 15.96875 4.375 17 3.71875 C 18.039062 3.070312 18.914062 2.039062 19.625 0.625 L -0.984375 -48.125 L 16.328125 -48.125 L 28.140625 -18.734375 L 40.046875 -48.125 Z M 56.109375 -48.125 "/></g></g></g><g fill="#000000" fill-opacity="1"><g transform="translate(248.650559, 218.33502)"><g><path d="M 47.328125 -12.609375 L 47.328125 0 L 2.9375 0 L 2.9375 -9.9375 L 25.21875 -35.59375 L 3.546875 -35.59375 L 3.546875 -48.125 L 46.4375 -48.125 L 46.4375 -38.265625 L 24.15625 -12.609375 Z M 47.328125 -12.609375 "/></g></g></g><g clip-path="url(#3474f3add2)"><path fill="#ffffff" d="M 121.753906 173.914062 L 114.171875 173.914062 C 101.199219 171.105469 98.3125 168.210938 95.503906 155.214844 L 95.503906 147.929688 L 94.546875 147.929688 L 94.546875 155.292969 C 91.742188 168.222656 88.84375 171.113281 75.890625 173.914062 L 70.363281 173.914062 L 70.363281 174.871094 L 75.890625 174.871094 C 88.84375 177.675781 91.742188 180.566406 94.546875 193.496094 L 94.546875 200.722656 L 95.503906 200.722656 L 95.503906 193.574219 C 98.3125 180.578125 101.199219 177.679688 114.171875 174.875 L 121.753906 174.875 Z M 121.753906 173.914062 " fill-opacity="1" fill-rule="nonzero"/></g></svg>