<svg xmlns="http://www.w3.org/2000/svg" xmlns:xlink="http://www.w3.org/1999/xlink" width="500" zoomAndPan="magnify" viewBox="0 0 375 374.999991" height="500" preserveAspectRatio="xMidYMid meet" version="1.0"><defs><g/><clipPath id="2f3c778b5e"><path d="M 76.597656 67.292969 L 228.097656 67.292969 L 228.097656 216.542969 L 76.597656 216.542969 Z M 76.597656 67.292969 " clip-rule="nonzero"/></clipPath></defs><g fill="#000000" fill-opacity="1"><g transform="translate(102.632153, 279.955573)"><g><path d="M 82.890625 3.671875 C 68.023438 3.671875 53.597656 1.835938 39.609375 -1.828125 C 25.617188 -5.503906 14.253906 -10.40625 5.515625 -16.53125 L 22.5625 -54.828125 C 30.78125 -49.398438 40.3125 -45.023438 51.15625 -41.703125 C 62 -38.378906 72.664062 -36.71875 83.15625 -36.71875 C 103.09375 -36.71875 113.0625 -41.703125 113.0625 -51.671875 C 113.0625 -56.921875 110.21875 -60.8125 104.53125 -63.34375 C 98.851562 -65.882812 89.71875 -68.554688 77.125 -71.359375 C 63.3125 -74.328125 51.769531 -77.515625 42.5 -80.921875 C 33.226562 -84.335938 25.269531 -89.804688 18.625 -97.328125 C 11.976562 -104.847656 8.65625 -114.988281 8.65625 -127.75 C 8.65625 -138.945312 11.710938 -149.046875 17.828125 -158.046875 C 23.953125 -167.054688 33.09375 -174.179688 45.25 -179.421875 C 57.40625 -184.671875 72.316406 -187.296875 89.984375 -187.296875 C 102.046875 -187.296875 113.9375 -185.941406 125.65625 -183.234375 C 137.375 -180.523438 147.691406 -176.546875 156.609375 -171.296875 L 140.609375 -132.734375 C 123.117188 -142.179688 106.15625 -146.90625 89.71875 -146.90625 C 79.394531 -146.90625 71.875 -145.375 67.15625 -142.3125 C 62.4375 -139.25 60.078125 -135.269531 60.078125 -130.375 C 60.078125 -125.476562 62.875 -121.804688 68.46875 -119.359375 C 74.0625 -116.910156 83.066406 -114.375 95.484375 -111.75 C 109.472656 -108.78125 121.054688 -105.585938 130.234375 -102.171875 C 139.421875 -98.765625 147.378906 -93.34375 154.109375 -85.90625 C 160.847656 -78.476562 164.21875 -68.378906 164.21875 -55.609375 C 164.21875 -44.597656 161.15625 -34.628906 155.03125 -25.703125 C 148.914062 -16.785156 139.734375 -9.660156 127.484375 -4.328125 C 115.242188 1.003906 100.378906 3.671875 82.890625 3.671875 Z M 82.890625 3.671875 "/></g></g></g><g clip-path="url(#2f3c778b5e)"><path fill="#ffffff" d="M 239.222656 149.507812 L 215.242188 149.507812 C 174.183594 140.625 165.054688 131.460938 156.167969 90.34375 L 156.167969 67.292969 L 153.136719 67.292969 L 153.136719 90.585938 C 144.265625 131.5 135.09375 140.640625 94.117188 149.507812 L 76.617188 149.507812 L 76.617188 152.542969 L 94.117188 152.542969 C 135.09375 161.410156 144.265625 170.554688 153.136719 211.46875 L 153.136719 234.328125 L 156.167969 234.328125 L 156.167969 211.710938 C 165.054688 170.589844 174.183594 161.429688 215.242188 152.542969 L 239.222656 152.542969 Z M 239.222656 149.507812 " fill-opacity="1" fill-rule="nonzero"/></g></svg>