<svg xmlns="http://www.w3.org/2000/svg" xmlns:xlink="http://www.w3.org/1999/xlink" width="500" zoomAndPan="magnify" viewBox="0 0 375 374.999991" height="500" preserveAspectRatio="xMidYMid meet" version="1.0"><defs><g/><clipPath id="16c85c314c"><path d="M 78.441406 67.292969 L 229.941406 67.292969 L 229.941406 216.542969 L 78.441406 216.542969 Z M 78.441406 67.292969 " clip-rule="nonzero"/></clipPath></defs><g fill="#ffffff" fill-opacity="1"><g transform="translate(103.802715, 281.790567)"><g><path d="M 82.109375 3.140625 C 67.597656 3.140625 53.5625 1.175781 40 -2.75 C 26.445312 -6.6875 15.5625 -11.804688 7.34375 -18.109375 L 21.78125 -50.109375 C 29.644531 -44.335938 39 -39.703125 49.84375 -36.203125 C 60.6875 -32.703125 71.53125 -30.953125 82.375 -30.953125 C 94.445312 -30.953125 103.367188 -32.742188 109.140625 -36.328125 C 114.910156 -39.921875 117.796875 -44.6875 117.796875 -50.625 C 117.796875 -55 116.085938 -58.628906 112.671875 -61.515625 C 109.265625 -64.398438 104.894531 -66.71875 99.5625 -68.46875 C 94.226562 -70.21875 87.015625 -72.144531 77.921875 -74.25 C 63.921875 -77.570312 52.460938 -80.894531 43.546875 -84.21875 C 34.628906 -87.539062 26.976562 -92.875 20.59375 -100.21875 C 14.207031 -107.5625 11.015625 -117.351562 11.015625 -129.59375 C 11.015625 -140.257812 13.898438 -149.921875 19.671875 -158.578125 C 25.441406 -167.242188 34.140625 -174.109375 45.765625 -179.171875 C 57.398438 -184.242188 71.613281 -186.78125 88.40625 -186.78125 C 100.125 -186.78125 111.578125 -185.378906 122.765625 -182.578125 C 133.960938 -179.785156 143.757812 -175.765625 152.15625 -170.515625 L 139.046875 -138.25 C 122.078125 -147.875 105.109375 -152.6875 88.140625 -152.6875 C 76.253906 -152.6875 67.46875 -150.757812 61.78125 -146.90625 C 56.09375 -143.0625 53.25 -137.992188 53.25 -131.703125 C 53.25 -125.398438 56.53125 -120.71875 63.09375 -117.65625 C 69.65625 -114.59375 79.664062 -111.578125 93.125 -108.609375 C 107.125 -105.285156 118.582031 -101.960938 127.5 -98.640625 C 136.414062 -95.316406 144.066406 -90.066406 150.453125 -82.890625 C 156.835938 -75.722656 160.03125 -66.019531 160.03125 -53.78125 C 160.03125 -43.289062 157.097656 -33.710938 151.234375 -25.046875 C 145.378906 -16.390625 136.59375 -9.523438 124.875 -4.453125 C 113.15625 0.609375 98.898438 3.140625 82.109375 3.140625 Z M 82.109375 3.140625 "/></g></g></g><g clip-path="url(#16c85c314c)"><path fill="#000000" d="M 241.171875 149.613281 L 217.171875 149.613281 C 176.089844 140.714844 166.953125 131.542969 158.0625 90.371094 L 158.0625 67.292969 L 155.027344 67.292969 L 155.027344 90.613281 C 146.152344 131.578125 136.972656 140.734375 95.96875 149.613281 L 78.460938 149.613281 L 78.460938 152.652344 L 95.96875 152.652344 C 136.972656 161.527344 146.152344 170.683594 155.027344 211.648438 L 155.027344 234.539062 L 158.0625 234.539062 L 158.0625 211.890625 C 166.953125 170.722656 176.089844 161.546875 217.171875 152.652344 L 241.171875 152.652344 Z M 241.171875 149.613281 " fill-opacity="1" fill-rule="nonzero"/></g></svg>