<svg xmlns="http://www.w3.org/2000/svg" xmlns:xlink="http://www.w3.org/1999/xlink" width="500" zoomAndPan="magnify" viewBox="0 0 375 374.999991" height="500" preserveAspectRatio="xMidYMid meet" version="1.0"><defs><g/><clipPath id="105c582ceb"><path d="M 49.535156 141.988281 L 105.035156 141.988281 L 105.035156 196.738281 L 49.535156 196.738281 Z M 49.535156 141.988281 " clip-rule="nonzero"/></clipPath></defs><g fill="#000000" fill-opacity="1"><g transform="translate(56.826627, 223.956014)"><g><path d="M 33.171875 1.46875 C 27.222656 1.46875 21.445312 0.734375 15.84375 -0.734375 C 10.25 -2.203125 5.703125 -4.160156 2.203125 -6.609375 L 9.03125 -21.9375 C 12.3125 -19.769531 16.125 -18.019531 20.46875 -16.6875 C 24.8125 -15.363281 29.082031 -14.703125 33.28125 -14.703125 C 41.25 -14.703125 45.234375 -16.691406 45.234375 -20.671875 C 45.234375 -22.773438 44.097656 -24.332031 41.828125 -25.34375 C 39.554688 -26.363281 35.898438 -27.429688 30.859375 -28.546875 C 25.328125 -29.742188 20.707031 -31.023438 17 -32.390625 C 13.289062 -33.753906 10.109375 -35.9375 7.453125 -38.9375 C 4.796875 -41.945312 3.46875 -46.007812 3.46875 -51.125 C 3.46875 -55.601562 4.691406 -59.644531 7.140625 -63.25 C 9.585938 -66.851562 13.242188 -69.703125 18.109375 -71.796875 C 22.972656 -73.898438 28.9375 -74.953125 36 -74.953125 C 40.832031 -74.953125 45.59375 -74.40625 50.28125 -73.3125 C 54.96875 -72.226562 59.097656 -70.640625 62.671875 -68.546875 L 56.265625 -53.109375 C 49.265625 -56.890625 42.476562 -58.78125 35.90625 -58.78125 C 31.769531 -58.78125 28.753906 -58.164062 26.859375 -56.9375 C 24.972656 -55.71875 24.03125 -54.128906 24.03125 -52.171875 C 24.03125 -50.210938 25.148438 -48.742188 27.390625 -47.765625 C 29.628906 -46.785156 33.234375 -45.769531 38.203125 -44.71875 C 43.804688 -43.53125 48.441406 -42.253906 52.109375 -40.890625 C 55.785156 -39.523438 58.96875 -37.351562 61.65625 -34.375 C 64.351562 -31.40625 65.703125 -27.363281 65.703125 -22.25 C 65.703125 -17.84375 64.476562 -13.851562 62.03125 -10.28125 C 59.582031 -6.71875 55.910156 -3.867188 51.015625 -1.734375 C 46.117188 0.398438 40.171875 1.46875 33.171875 1.46875 Z M 33.171875 1.46875 "/></g></g></g><g fill="#000000" fill-opacity="1"><g transform="translate(114.024067, 223.956014)"><g><path d="M 30.65625 -57.84375 C 40.101562 -57.84375 47.3125 -55.6875 52.28125 -51.375 C 57.25 -47.070312 59.734375 -40.476562 59.734375 -31.59375 L 59.734375 0 L 41.140625 0 L 41.140625 -7.34375 C 38.273438 -1.820312 32.679688 0.9375 24.359375 0.9375 C 19.941406 0.9375 16.125 0.171875 12.90625 -1.359375 C 9.6875 -2.898438 7.253906 -4.984375 5.609375 -7.609375 C 3.972656 -10.234375 3.15625 -13.222656 3.15625 -16.578125 C 3.15625 -21.972656 5.21875 -26.15625 9.34375 -29.125 C 13.46875 -32.101562 19.835938 -33.59375 28.453125 -33.59375 L 39.78125 -33.59375 C 39.4375 -39.613281 35.414062 -42.625 27.71875 -42.625 C 24.988281 -42.625 22.222656 -42.1875 19.421875 -41.3125 C 16.617188 -40.4375 14.238281 -39.226562 12.28125 -37.6875 L 5.5625 -51.21875 C 8.707031 -53.320312 12.535156 -54.953125 17.046875 -56.109375 C 21.566406 -57.265625 26.101562 -57.84375 30.65625 -57.84375 Z M 29.921875 -11.65625 C 32.222656 -11.65625 34.25 -12.210938 36 -13.328125 C 37.75 -14.453125 39.007812 -16.097656 39.78125 -18.265625 L 39.78125 -23.203125 L 31.171875 -23.203125 C 25.367188 -23.203125 22.46875 -21.273438 22.46875 -17.421875 C 22.46875 -15.671875 23.128906 -14.269531 24.453125 -13.21875 C 25.785156 -12.175781 27.609375 -11.65625 29.921875 -11.65625 Z M 29.921875 -11.65625 "/></g></g></g><g fill="#000000" fill-opacity="1"><g transform="translate(169.227382, 223.956014)"><g><path d="M 45.65625 -2.3125 C 43.976562 -1.257812 41.929688 -0.457031 39.515625 0.09375 C 37.109375 0.65625 34.539062 0.9375 31.8125 0.9375 C 24.382812 0.9375 18.675781 -0.878906 14.6875 -4.515625 C 10.707031 -8.148438 8.71875 -13.570312 8.71875 -20.78125 L 8.71875 -39.890625 L 0.421875 -39.890625 L 0.421875 -54.796875 L 8.71875 -54.796875 L 8.71875 -69.59375 L 28.65625 -69.59375 L 28.65625 -54.796875 L 41.671875 -54.796875 L 41.671875 -39.890625 L 28.65625 -39.890625 L 28.65625 -21 C 28.65625 -18.96875 29.195312 -17.375 30.28125 -16.21875 C 31.363281 -15.0625 32.816406 -14.484375 34.640625 -14.484375 C 36.953125 -14.484375 38.984375 -15.078125 40.734375 -16.265625 Z M 45.65625 -2.3125 "/></g></g></g><g fill="#000000" fill-opacity="1"><g transform="translate(205.434129, 223.956014)"><g><path d="M 66.34375 -56.890625 L 41.78125 2.3125 C 38.90625 9.3125 35.40625 14.226562 31.28125 17.0625 C 27.15625 19.894531 22.117188 21.3125 16.171875 21.3125 C 13.160156 21.3125 10.128906 20.835938 7.078125 19.890625 C 4.035156 18.941406 1.570312 17.703125 -0.3125 16.171875 L 6.609375 2.203125 C 7.734375 3.253906 9.082031 4.078125 10.65625 4.671875 C 12.226562 5.265625 13.820312 5.5625 15.4375 5.5625 C 17.320312 5.5625 18.875 5.175781 20.09375 4.40625 C 21.320312 3.632812 22.359375 2.410156 23.203125 0.734375 L -1.15625 -56.890625 L 19.3125 -56.890625 L 33.28125 -22.140625 L 47.34375 -56.890625 Z M 66.34375 -56.890625 "/></g></g></g><g fill="#000000" fill-opacity="1"><g transform="translate(259.797826, 223.956014)"><g><path d="M 55.953125 -14.90625 L 55.953125 0 L 3.46875 0 L 3.46875 -11.75 L 29.8125 -42.09375 L 4.203125 -42.09375 L 4.203125 -56.890625 L 54.90625 -56.890625 L 54.90625 -45.234375 L 28.546875 -14.90625 Z M 55.953125 -14.90625 "/></g></g></g><g clip-path="url(#105c582ceb)"><path fill="#ffffff" d="M 109.433594 172.269531 L 100.601562 172.269531 C 85.480469 168.996094 82.117188 165.621094 78.84375 150.476562 L 78.84375 141.988281 L 77.726562 141.988281 L 77.726562 150.566406 C 74.460938 165.636719 71.082031 169.003906 55.988281 172.269531 L 49.542969 172.269531 L 49.542969 173.386719 L 55.988281 173.386719 C 71.082031 176.652344 74.460938 180.019531 77.726562 195.089844 L 77.726562 203.511719 L 78.84375 203.511719 L 78.84375 195.179688 C 82.117188 180.035156 85.480469 176.660156 100.601562 173.386719 L 109.433594 173.386719 Z M 109.433594 172.269531 " fill-opacity="1" fill-rule="nonzero"/></g></svg>