<svg xmlns="http://www.w3.org/2000/svg" xmlns:xlink="http://www.w3.org/1999/xlink" width="500" zoomAndPan="magnify" viewBox="0 0 375 374.999991" height="500" preserveAspectRatio="xMidYMid meet" version="1.0"><defs><g/><clipPath id="46b272790f"><path d="M 56.039062 148.566406 L 116.039062 148.566406 L 116.039062 207.816406 L 56.039062 207.816406 Z M 56.039062 148.566406 " clip-rule="nonzero"/></clipPath></defs><g fill="#ffffff" fill-opacity="1"><g transform="translate(67.194203, 231.981379)"><g><path d="M 31.078125 1.1875 C 25.585938 1.1875 20.273438 0.441406 15.140625 -1.046875 C 10.015625 -2.535156 5.894531 -4.472656 2.78125 -6.859375 L 8.25 -18.96875 C 11.226562 -16.78125 14.769531 -15.023438 18.875 -13.703125 C 22.976562 -12.378906 27.082031 -11.71875 31.1875 -11.71875 C 35.75 -11.71875 39.125 -12.394531 41.3125 -13.75 C 43.5 -15.113281 44.59375 -16.921875 44.59375 -19.171875 C 44.59375 -20.828125 43.945312 -22.195312 42.65625 -23.28125 C 41.363281 -24.375 39.707031 -25.25 37.6875 -25.90625 C 35.664062 -26.570312 32.9375 -27.304688 29.5 -28.109375 C 24.195312 -29.367188 19.859375 -30.625 16.484375 -31.875 C 13.109375 -33.132812 10.210938 -35.15625 7.796875 -37.9375 C 5.378906 -40.71875 4.171875 -44.425781 4.171875 -49.0625 C 4.171875 -53.101562 5.257812 -56.757812 7.4375 -60.03125 C 9.625 -63.3125 12.921875 -65.910156 17.328125 -67.828125 C 21.734375 -69.742188 27.113281 -70.703125 33.46875 -70.703125 C 37.90625 -70.703125 42.238281 -70.171875 46.46875 -69.109375 C 50.707031 -68.054688 54.414062 -66.535156 57.59375 -64.546875 L 52.640625 -52.34375 C 46.210938 -55.976562 39.789062 -57.796875 33.375 -57.796875 C 28.863281 -57.796875 25.53125 -57.066406 23.375 -55.609375 C 21.226562 -54.160156 20.15625 -52.242188 20.15625 -49.859375 C 20.15625 -47.472656 21.394531 -45.695312 23.875 -44.53125 C 26.363281 -43.375 30.15625 -42.234375 35.25 -41.109375 C 40.550781 -39.859375 44.890625 -38.601562 48.265625 -37.34375 C 51.640625 -36.082031 54.535156 -34.09375 56.953125 -31.375 C 59.367188 -28.664062 60.578125 -24.992188 60.578125 -20.359375 C 60.578125 -16.390625 59.46875 -12.765625 57.25 -9.484375 C 55.03125 -6.203125 51.703125 -3.601562 47.265625 -1.6875 C 42.835938 0.226562 37.441406 1.1875 31.078125 1.1875 Z M 31.078125 1.1875 "/></g></g></g><g fill="#ffffff" fill-opacity="1"><g transform="translate(120.419658, 231.981379)"><g><path d="M 28.703125 -54.21875 C 36.972656 -54.21875 43.328125 -52.25 47.765625 -48.3125 C 52.203125 -44.375 54.421875 -38.429688 54.421875 -30.484375 L 54.421875 0 L 39.921875 0 L 39.921875 -6.65625 C 37.003906 -1.6875 31.578125 0.796875 23.640625 0.796875 C 19.535156 0.796875 15.972656 0.101562 12.953125 -1.28125 C 9.941406 -2.675781 7.640625 -4.597656 6.046875 -7.046875 C 4.460938 -9.492188 3.671875 -12.273438 3.671875 -15.390625 C 3.671875 -20.359375 5.539062 -24.265625 9.28125 -27.109375 C 13.019531 -29.953125 18.796875 -31.375 26.609375 -31.375 L 38.9375 -31.375 C 38.9375 -34.757812 37.90625 -37.359375 35.84375 -39.171875 C 33.789062 -40.992188 30.710938 -41.90625 26.609375 -41.90625 C 23.765625 -41.90625 20.96875 -41.457031 18.21875 -40.5625 C 15.476562 -39.675781 13.144531 -38.46875 11.21875 -36.9375 L 5.65625 -47.765625 C 8.570312 -49.816406 12.066406 -51.40625 16.140625 -52.53125 C 20.210938 -53.65625 24.398438 -54.21875 28.703125 -54.21875 Z M 27.515625 -9.640625 C 30.160156 -9.640625 32.507812 -10.25 34.5625 -11.46875 C 36.613281 -12.695312 38.070312 -14.503906 38.9375 -16.890625 L 38.9375 -22.34375 L 28.296875 -22.34375 C 21.941406 -22.34375 18.765625 -20.257812 18.765625 -16.09375 C 18.765625 -14.101562 19.539062 -12.53125 21.09375 -11.375 C 22.65625 -10.21875 24.796875 -9.640625 27.515625 -9.640625 Z M 27.515625 -9.640625 "/></g></g></g><g fill="#ffffff" fill-opacity="1"><g transform="translate(171.559744, 231.981379)"><g><path d="M 41.609375 -2.578125 C 40.085938 -1.453125 38.21875 -0.609375 36 -0.046875 C 33.78125 0.515625 31.445312 0.796875 29 0.796875 C 22.644531 0.796875 17.726562 -0.820312 14.25 -4.0625 C 10.769531 -7.3125 9.03125 -12.082031 9.03125 -18.375 L 9.03125 -40.328125 L 0.796875 -40.328125 L 0.796875 -52.234375 L 9.03125 -52.234375 L 9.03125 -65.25 L 24.53125 -65.25 L 24.53125 -52.234375 L 37.84375 -52.234375 L 37.84375 -40.328125 L 24.53125 -40.328125 L 24.53125 -18.578125 C 24.53125 -16.316406 25.109375 -14.570312 26.265625 -13.34375 C 27.421875 -12.125 29.0625 -11.515625 31.1875 -11.515625 C 33.632812 -11.515625 35.71875 -12.175781 37.4375 -13.5 Z M 41.609375 -2.578125 "/></g></g></g><g fill="#ffffff" fill-opacity="1"><g transform="translate(204.626672, 231.981379)"><g><path d="M 60.1875 -53.4375 L 36.046875 3.28125 C 33.597656 9.4375 30.566406 13.769531 26.953125 16.28125 C 23.347656 18.800781 19 20.0625 13.90625 20.0625 C 11.125 20.0625 8.375 19.628906 5.65625 18.765625 C 2.945312 17.910156 0.726562 16.71875 -1 15.1875 L 4.671875 4.171875 C 5.859375 5.234375 7.226562 6.0625 8.78125 6.65625 C 10.34375 7.25 11.882812 7.546875 13.40625 7.546875 C 15.519531 7.546875 17.238281 7.03125 18.5625 6 C 19.894531 4.976562 21.085938 3.273438 22.140625 0.890625 L 22.34375 0.390625 L -0.796875 -53.4375 L 15.1875 -53.4375 L 30.1875 -17.1875 L 45.28125 -53.4375 Z M 60.1875 -53.4375 "/></g></g></g><g fill="#ffffff" fill-opacity="1"><g transform="translate(253.880004, 231.981379)"><g><path d="M 51.140625 -11.921875 L 51.140625 0 L 3.46875 0 L 3.46875 -9.328125 L 30.6875 -41.515625 L 4.171875 -41.515625 L 4.171875 -53.4375 L 50.25 -53.4375 L 50.25 -44.09375 L 23.046875 -11.921875 Z M 51.140625 -11.921875 "/></g></g></g><g clip-path="url(#46b272790f)"><path fill="#000000" d="M 120.53125 181.421875 L 111.019531 181.421875 C 94.738281 177.871094 91.117188 174.210938 87.59375 157.78125 L 87.59375 148.570312 L 86.390625 148.570312 L 86.390625 157.875 C 82.875 174.226562 79.238281 177.878906 62.988281 181.421875 L 56.050781 181.421875 L 56.050781 182.636719 L 62.988281 182.636719 C 79.238281 186.179688 82.875 189.832031 86.390625 206.183594 L 86.390625 215.316406 L 87.59375 215.316406 L 87.59375 206.277344 C 91.117188 189.847656 94.738281 186.1875 111.019531 182.636719 L 120.53125 182.636719 Z M 120.53125 181.421875 " fill-opacity="1" fill-rule="nonzero"/></g></svg>